<mxfile host="Electron" modified="2024-07-08T23:34:03.075Z" agent="Mozilla/5.0 (Windows NT 10.0; Win64; x64) AppleWebKit/537.36 (KHTML, like Gecko) draw.io/21.2.8 Chrome/112.0.5615.165 Electron/24.2.0 Safari/537.36" etag="ihkrgUtyZm0zDghqh1nQ" version="21.2.8" type="device">
  <diagram name="Página-1" id="rRIUJKIKHFJOIh2s6z2e">
    <mxGraphModel dx="1098" dy="828" grid="1" gridSize="10" guides="1" tooltips="1" connect="1" arrows="1" fold="1" page="1" pageScale="1" pageWidth="827" pageHeight="1169" math="0" shadow="0">
      <root>
        <mxCell id="0" />
        <mxCell id="1" parent="0" />
        <mxCell id="vfAIbXfLQi8L4TiWNjPY-1" value="" style="rounded=1;whiteSpace=wrap;html=1;absoluteArcSize=1;arcSize=0;strokeWidth=2;" parent="1" vertex="1">
          <mxGeometry x="220" y="360" width="570" height="500" as="geometry" />
        </mxCell>
        <mxCell id="vfAIbXfLQi8L4TiWNjPY-2" value="Seguiminetos&lt;br&gt;de&lt;br&gt;Ventas" style="shape=umlActor;verticalLabelPosition=bottom;verticalAlign=top;html=1;outlineConnect=0;" parent="1" vertex="1">
          <mxGeometry x="90" y="410" width="30" height="60" as="geometry" />
        </mxCell>
        <mxCell id="vfAIbXfLQi8L4TiWNjPY-3" value="Gestion&lt;br&gt;de&amp;nbsp;&lt;br&gt;Inventario" style="shape=umlActor;verticalLabelPosition=bottom;verticalAlign=top;html=1;outlineConnect=0;" parent="1" vertex="1">
          <mxGeometry x="80" y="710" width="30" height="60" as="geometry" />
        </mxCell>
        <mxCell id="vfAIbXfLQi8L4TiWNjPY-4" value="Atención&amp;nbsp;&lt;br&gt;al&amp;nbsp;&lt;br&gt;Cliente&lt;br&gt;" style="shape=umlActor;verticalLabelPosition=bottom;verticalAlign=top;html=1;outlineConnect=0;" parent="1" vertex="1">
          <mxGeometry x="160" y="550" width="30" height="60" as="geometry" />
        </mxCell>
        <mxCell id="vfAIbXfLQi8L4TiWNjPY-5" value="Sist. de soft" style="strokeWidth=2;html=1;shape=mxgraph.flowchart.database;whiteSpace=wrap;" parent="1" vertex="1">
          <mxGeometry x="840" y="610" width="70" height="70" as="geometry" />
        </mxCell>
        <mxCell id="vfAIbXfLQi8L4TiWNjPY-8" value="Actualización&lt;div&gt;del&amp;nbsp;&lt;div&gt;&amp;nbsp;inventario&lt;/div&gt;&lt;/div&gt;" style="ellipse;whiteSpace=wrap;html=1;" parent="1" vertex="1">
          <mxGeometry x="400" y="740" width="120" height="70" as="geometry" />
        </mxCell>
        <mxCell id="vfAIbXfLQi8L4TiWNjPY-11" value="Servir helado" style="ellipse;whiteSpace=wrap;html=1;" parent="1" vertex="1">
          <mxGeometry x="390" y="620" width="120" height="70" as="geometry" />
        </mxCell>
        <mxCell id="vfAIbXfLQi8L4TiWNjPY-12" value="Cobrar" style="ellipse;whiteSpace=wrap;html=1;" parent="1" vertex="1">
          <mxGeometry x="250" y="470" width="120" height="70" as="geometry" />
        </mxCell>
        <mxCell id="vfAIbXfLQi8L4TiWNjPY-13" value="Tomar orden&amp;nbsp;" style="ellipse;whiteSpace=wrap;html=1;" parent="1" vertex="1">
          <mxGeometry x="370" y="520" width="120" height="70" as="geometry" />
        </mxCell>
        <mxCell id="vfAIbXfLQi8L4TiWNjPY-33" value="" style="curved=1;endArrow=classic;html=1;rounded=0;entryX=0;entryY=0.5;entryDx=0;entryDy=0;" parent="1" source="vfAIbXfLQi8L4TiWNjPY-4" target="vfAIbXfLQi8L4TiWNjPY-13" edge="1">
          <mxGeometry width="50" height="50" relative="1" as="geometry">
            <mxPoint x="200" y="610" as="sourcePoint" />
            <mxPoint x="250" y="560" as="targetPoint" />
            <Array as="points">
              <mxPoint x="200" y="580" />
              <mxPoint x="200" y="570" />
              <mxPoint x="200" y="560" />
            </Array>
          </mxGeometry>
        </mxCell>
        <mxCell id="vfAIbXfLQi8L4TiWNjPY-41" value="" style="endArrow=classic;html=1;rounded=0;exitX=1;exitY=0.5;exitDx=0;exitDy=0;" parent="1" source="vfAIbXfLQi8L4TiWNjPY-12" target="0fJI3ZDAoBM3sLP4nngf-8" edge="1">
          <mxGeometry width="50" height="50" relative="1" as="geometry">
            <mxPoint x="570" y="510" as="sourcePoint" />
            <mxPoint x="620" y="460" as="targetPoint" />
          </mxGeometry>
        </mxCell>
        <mxCell id="0fJI3ZDAoBM3sLP4nngf-2" value="" style="endArrow=classic;html=1;rounded=0;exitX=1;exitY=0.5;exitDx=0;exitDy=0;entryX=0;entryY=0.5;entryDx=0;entryDy=0;entryPerimeter=0;" parent="1" source="vfAIbXfLQi8L4TiWNjPY-13" target="vfAIbXfLQi8L4TiWNjPY-5" edge="1">
          <mxGeometry width="50" height="50" relative="1" as="geometry">
            <mxPoint x="440" y="590" as="sourcePoint" />
            <mxPoint x="490" y="540" as="targetPoint" />
          </mxGeometry>
        </mxCell>
        <mxCell id="0fJI3ZDAoBM3sLP4nngf-3" value="" style="endArrow=classic;html=1;rounded=0;exitX=1;exitY=0.5;exitDx=0;exitDy=0;entryX=-0.03;entryY=0.71;entryDx=0;entryDy=0;entryPerimeter=0;" parent="1" source="vfAIbXfLQi8L4TiWNjPY-11" target="vfAIbXfLQi8L4TiWNjPY-5" edge="1">
          <mxGeometry width="50" height="50" relative="1" as="geometry">
            <mxPoint x="530" y="660" as="sourcePoint" />
            <mxPoint x="580" y="610" as="targetPoint" />
          </mxGeometry>
        </mxCell>
        <mxCell id="0fJI3ZDAoBM3sLP4nngf-4" value="" style="endArrow=classic;html=1;rounded=0;exitX=1;exitY=0.5;exitDx=0;exitDy=0;entryX=0;entryY=0.85;entryDx=0;entryDy=0;entryPerimeter=0;" parent="1" source="vfAIbXfLQi8L4TiWNjPY-8" target="vfAIbXfLQi8L4TiWNjPY-5" edge="1">
          <mxGeometry width="50" height="50" relative="1" as="geometry">
            <mxPoint x="410" y="750" as="sourcePoint" />
            <mxPoint x="460" y="700" as="targetPoint" />
          </mxGeometry>
        </mxCell>
        <mxCell id="0fJI3ZDAoBM3sLP4nngf-8" value="Cliente&lt;div&gt;&lt;br&gt;&lt;/div&gt;" style="shape=umlActor;verticalLabelPosition=bottom;verticalAlign=top;html=1;outlineConnect=0;" parent="1" vertex="1">
          <mxGeometry x="470" y="260" width="30" height="60" as="geometry" />
        </mxCell>
        <mxCell id="0fJI3ZDAoBM3sLP4nngf-9" value="Reporte&lt;div&gt;de&lt;/div&gt;&lt;div&gt;ventas&amp;nbsp;&lt;/div&gt;" style="ellipse;whiteSpace=wrap;html=1;" parent="1" vertex="1">
          <mxGeometry x="250" y="370" width="120" height="70" as="geometry" />
        </mxCell>
        <mxCell id="0fJI3ZDAoBM3sLP4nngf-11" value="" style="endArrow=classic;html=1;rounded=0;entryX=0;entryY=0.5;entryDx=0;entryDy=0;" parent="1" source="vfAIbXfLQi8L4TiWNjPY-2" target="0fJI3ZDAoBM3sLP4nngf-9" edge="1">
          <mxGeometry width="50" height="50" relative="1" as="geometry">
            <mxPoint x="130" y="440" as="sourcePoint" />
            <mxPoint x="180" y="390" as="targetPoint" />
          </mxGeometry>
        </mxCell>
        <mxCell id="0fJI3ZDAoBM3sLP4nngf-13" value="" style="endArrow=classic;html=1;rounded=0;entryX=0;entryY=0.5;entryDx=0;entryDy=0;" parent="1" source="vfAIbXfLQi8L4TiWNjPY-2" target="vfAIbXfLQi8L4TiWNjPY-12" edge="1">
          <mxGeometry width="50" height="50" relative="1" as="geometry">
            <mxPoint x="170" y="490" as="sourcePoint" />
            <mxPoint x="220" y="440" as="targetPoint" />
          </mxGeometry>
        </mxCell>
        <mxCell id="0fJI3ZDAoBM3sLP4nngf-15" value="" style="endArrow=classic;html=1;rounded=0;exitX=1;exitY=0.5;exitDx=0;exitDy=0;entryX=-0.052;entryY=0.329;entryDx=0;entryDy=0;entryPerimeter=0;" parent="1" source="0fJI3ZDAoBM3sLP4nngf-9" target="vfAIbXfLQi8L4TiWNjPY-5" edge="1">
          <mxGeometry width="50" height="50" relative="1" as="geometry">
            <mxPoint x="440" y="410" as="sourcePoint" />
            <mxPoint x="810" y="570" as="targetPoint" />
          </mxGeometry>
        </mxCell>
        <mxCell id="0fJI3ZDAoBM3sLP4nngf-19" value="" style="endArrow=classic;html=1;rounded=0;entryX=0;entryY=0.5;entryDx=0;entryDy=0;" parent="1" source="vfAIbXfLQi8L4TiWNjPY-3" target="vfAIbXfLQi8L4TiWNjPY-8" edge="1">
          <mxGeometry width="50" height="50" relative="1" as="geometry">
            <mxPoint x="110" y="760" as="sourcePoint" />
            <mxPoint x="160" y="710" as="targetPoint" />
          </mxGeometry>
        </mxCell>
        <mxCell id="0fJI3ZDAoBM3sLP4nngf-20" value="" style="endArrow=none;dashed=1;html=1;dashPattern=1 3;strokeWidth=2;rounded=0;exitX=0.5;exitY=1;exitDx=0;exitDy=0;" parent="1" source="0fJI3ZDAoBM3sLP4nngf-9" target="vfAIbXfLQi8L4TiWNjPY-12" edge="1">
          <mxGeometry width="50" height="50" relative="1" as="geometry">
            <mxPoint x="470" y="540" as="sourcePoint" />
            <mxPoint x="520" y="490" as="targetPoint" />
          </mxGeometry>
        </mxCell>
        <mxCell id="0fJI3ZDAoBM3sLP4nngf-21" value="" style="endArrow=classic;html=1;rounded=0;exitX=0.744;exitY=0.786;exitDx=0;exitDy=0;exitPerimeter=0;entryX=0;entryY=0.5;entryDx=0;entryDy=0;" parent="1" source="vfAIbXfLQi8L4TiWNjPY-4" target="vfAIbXfLQi8L4TiWNjPY-11" edge="1">
          <mxGeometry width="50" height="50" relative="1" as="geometry">
            <mxPoint x="270" y="635" as="sourcePoint" />
            <mxPoint x="320" y="585" as="targetPoint" />
          </mxGeometry>
        </mxCell>
      </root>
    </mxGraphModel>
  </diagram>
</mxfile>
